<?xml version="1.0" encoding="UTF-8"?>
<svg width="120px" height="79px" viewBox="0 0 120 79" version="1.1" xmlns="http://www.w3.org/2000/svg" xmlns:xlink="http://www.w3.org/1999/xlink">
    <!-- Generator: Sketch 43.2 (39069) - http://www.bohemiancoding.com/sketch -->
    <title>elms-outline</title>
    <desc>Created with Sketch.</desc>
    <defs></defs>
    <g id="Page-1" stroke="none" stroke-width="1" fill="none" fill-rule="evenodd">
        <g id="elms-outline" stroke-width="0.75" stroke="#6C897C">
            <g>
                <path d="M5.66468607,71.8670698 C7.5001695,70.6792856 8.24347801,67.9534561 8.18844446,66.483389 C8.15327667,65.5454024 8.13609546,64.6031205 8.1862968,63.6662078 C8.25287399,62.4262078 7.73367935,62.4361407 6.83139748,62.9032548 C5.65367935,63.5126507 4.77394781,64.4535903 3.66710217,65.7067447 C4.03569278,63.8600333 5.09126325,62.9373487 6.32347801,62.4675501 C8.0029411,61.8262078 8.26361224,60.7209729 8.2115317,59.1427179 C8.14871291,57.2347984 7.66898137,55.1547984 8.50871291,53.4436575 C9.53206862,51.3588252 9.20025654,49.289295 9.22495452,47.2020467 C9.25126325,45.0039259 8.77582701,44.7803018 6.96562566,45.9032548 C6.46898137,46.2114427 5.9924713,46.5370803 5.66468607,47.0398991 C5.4029411,47.4415098 4.9924713,47.593993 4.54790754,47.7121138 C3.96320956,47.8667447 3.71569278,47.4503689 3.50844446,47.0766776 C3.26414915,46.6361407 3.47032365,46.3556038 3.95032365,46.1743957 C5.30495452,45.662181 4.43112902,45.2095635 3.86334378,44.8237917 C3.61931694,44.6576172 3.25206862,44.5150669 2.98522298,44.5717112 C2.38871291,44.6992279 2.14226996,44.4353353 2.05582701,43.9335903 C1.95086056,43.3228521 2.30602835,43.0474158 2.77743774,42.6721138 C3.23005519,42.3123823 4.50710217,43.1711742 4.23730352,41.5805702 C4.09743774,40.7553353 3.70361224,40.2960065 3.33394781,39.6705031 C2.69072633,38.5813756 1.37555855,38.3749326 0.460122307,37.3687581 C2.63354513,37.5547984 4.74307533,39.7585568 5.00804177,41.452785 C5.13663237,42.2747984 5.55730352,42.6135903 6.40857868,42.4055367 C7.05663237,42.2471474 7.29260553,41.9472816 6.83139748,41.3945299 C6.54119613,41.046342 6.23918271,40.7207044 6.15273976,40.2645971 C6.10710217,40.0243286 6.00213573,39.7969461 6.38441761,39.6358722 C8.5377062,38.7287581 8.86146459,37.262181 7.08696795,35.8219125 C5.92025654,34.8750669 6.35891425,33.9666105 6.72777331,32.9684897 C6.79327667,32.79104 7.05045788,32.5577514 7.21287399,32.5623152 C8.53045788,32.6015098 8.41985385,31.6954695 8.45878003,30.8208387 C8.50602835,29.753993 8.6386458,28.6917112 8.71327667,27.6259393 C8.75649815,27.0141273 8.73555855,26.4973487 7.85797466,26.9547984 C7.28831023,27.2519796 6.70790754,27.0887581 6.28374647,26.5907716 C5.87327667,26.108087 5.71971962,25.5454024 6.12401492,24.9969461 C6.43515586,24.5743957 6.41045788,24.1878185 6.09448472,23.6476843 C7.06226996,24.1354695 7.62790754,23.8372145 8.21475318,23.1156038 C8.85797466,22.3249997 8.39622969,21.8347984 8.02951828,21.2224494 C7.78441761,20.8135903 7.50763909,20.3714427 7.77502164,19.8506373 C8.04186727,19.8036575 8.02871291,20.0168118 8.08804177,20.1612414 C8.29609546,20.6664763 8.58951828,21.3032548 9.14253841,21.1947984 C9.70495452,21.0841944 9.48482029,20.3711742 9.51998808,19.9040601 C9.70549143,17.4135903 9.85851157,14.920436 10.0705921,12.4321138 C10.1683102,11.2831205 9.82414915,10.5598991 8.61797466,10.2858051 C6.73824311,9.85895947 5.48079345,8.85922793 4.60079345,6.96580511 C3.98361224,5.63801988 3.35703506,3.94916082 1.48938405,3.43775142 C0.463880697,3.15721451 0.356766603,1.93412726 0.0440149249,1.06379169 C-0.193300511,0.402852091 0.584954522,0.198019876 1.04240419,0.0372145071 C1.56374647,-0.146141198 1.57072633,0.390771554 1.60616258,0.716140682 C1.71622969,1.7295635 2.43918271,2.17251652 3.2638807,2.43989907 C4.06441761,2.69976484 4.34710217,3.30969773 4.79515586,3.94271786 C6.04133036,5.70352323 6.46119613,8.27399303 9.18012231,8.71452994 C9.66549143,8.79318766 9.98146459,8.86942927 10.3046861,8.37412726 C11.3033438,6.84419437 13.3862968,6.07855679 15.4593169,6.52929504 C14.8026726,5.08124135 14.1943505,3.74083867 13.5860283,2.40043598 C14.2410619,2.43238229 14.9342163,2.17305343 14.8971693,3.29117424 C14.8692498,4.12580511 15.5562297,4.82406014 15.9707263,5.56043598 C16.1250888,5.83452994 16.3156928,5.94755008 16.6150216,5.73171115 C16.8120686,5.58969773 17.0075049,5.06191249 17.2751559,5.63667759 C17.4072364,5.92070444 17.7151559,6.31694605 17.2085787,6.55399303 C16.5326055,6.86996618 16.6630753,7.15238229 17.1065653,7.61359035 C18.1057599,8.65305343 17.951129,10.0001675 17.9704579,11.2938588 C17.9747532,11.5899662 17.8488471,12.0122481 18.1943505,12.1378856 C18.6316659,12.2968118 18.791129,11.8565434 18.9573035,11.5590937 C19.2756928,10.9875501 19.6944847,10.5408387 20.345223,10.3824494 C21.5253572,10.0954695 22.0703236,9.24661048 22.4609277,8.18030176 C22.8268337,7.18083867 23.0974377,6.13224806 23.7471022,5.25063733 C24.0313975,4.86513397 23.9567666,4.50244941 23.5809277,4.19614068 C22.4262968,3.25493263 21.7164981,1.81761719 20.25878,1.20902659 C20.2203908,1.19318766 20.2378404,1.04553665 20.2179747,0.840435984 C21.1591827,0.976811823 21.8077733,1.54083867 22.4448203,2.10781853 C22.6413304,2.28231518 22.7693841,2.53224806 22.9371693,2.74057021 C23.4818673,3.41734874 24.4356928,3.59318766 24.9846861,3.35318766 C25.6295183,3.07104001 24.9269679,2.28150981 24.8456257,1.70969773 C24.8214646,1.54030176 24.7266995,1.37493263 24.6389143,1.22191249 C24.4547532,0.897617192 23.9573035,0.547550078 24.4743505,0.215737997 C24.9860283,-0.112315694 25.320525,0.32070444 25.4611961,0.775737997 C25.6893841,1.51399303 26.0904579,1.5462078 26.6934109,0.932784977 C26.351129,2.92741585 25.5629411,4.46459706 24.4923371,5.88312055 C23.8724713,6.70406014 23.8856257,7.74567088 23.7079075,8.69681182 C23.4993169,9.81144269 22.9895183,10.6237917 21.9567666,11.049295 C20.8582431,11.502181 20.3097867,12.4715769 19.5527398,13.2844628 C18.1054914,14.8377514 18.0096525,16.5147984 18.2262968,18.4970803 C18.4942163,20.9547984 18.3836122,21.0764091 20.5379747,19.9752011 C22.4134109,19.0168118 24.5731424,19.3126507 26.4413304,18.3808387 C26.8351559,18.1845971 27.4633438,18.3343957 27.97878,18.8135903 C28.6115317,19.4020467 29.4689814,19.8347984 30.3036122,20.0943957 C30.9935451,20.3088924 31.7156928,20.5045971 31.7538136,21.2248655 C31.7868337,21.8565434 30.8394512,21.4970803 30.5138136,21.9223152 C30.6083102,21.4296977 30.4754243,21.0812414 29.985223,20.8412414 C29.0236122,20.3695635 28.0923371,19.8372145 27.1382431,19.3496977 C26.7240149,19.1378856 26.2977062,19.1496977 25.8448203,19.3131877 C24.1395854,19.9287581 22.5028069,20.5768118 23.012874,22.9255367 C23.0171693,22.9437917 22.9006592,22.9878185 22.8373035,23.0213756 C22.4571693,20.2331877 22.4781089,20.2782883 19.8077733,21.5027179 C18.85878,21.9376172 18.4858941,22.4509058 18.5167666,23.5188252 C18.5744847,25.4769461 18.6493841,27.4415098 18.3352901,29.4012414 C18.065223,31.0871474 18.5790485,31.433993 20.2799881,31.0793622 C22.268176,30.6648655 22.9178404,28.7843286 24.2265653,27.6313085 C24.5473706,27.3486239 24.1573035,27.0785568 24.034082,26.8122481 C23.5060283,25.6696977 22.4778404,25.1045971 21.1508606,24.5612414 C22.4007934,24.1188252 23.0002565,24.8560065 23.6037465,25.3131877 C24.3199881,25.855738 24.6582431,27.4919796 25.8850888,25.8723823 C25.9207934,25.8248655 26.0764981,25.8082212 26.1320686,25.8444628 C27.1876391,26.5360065 27.5420015,25.5837917 28.006431,25.0122481 C28.6271022,24.2487581 29.1798539,23.4278185 29.7618673,22.63104 C29.7261626,23.2943957 29.6904579,23.9577514 29.6491156,24.7397648 C30.4550216,24.4954695 31.0893841,24.6076843 31.1938136,25.6605702 C31.2676391,26.4039259 31.0512632,26.7631205 30.2824042,26.7773487 C28.1068337,26.8165434 26.5769008,27.8758722 25.2410619,29.5800333 C23.2601223,32.1075501 21.0738136,34.4753353 18.9377062,36.8785568 C18.4942163,37.3776172 18.2268337,37.8543957 18.2383773,38.5360065 C18.3087129,42.5937246 18.6295183,46.6358722 18.9446861,50.6782883 C18.9688471,50.9902346 19.0300552,51.3011071 19.0260283,51.6122481 C18.960525,56.6176172 19.3632096,61.6060736 19.548176,66.6023152 C19.6053572,68.1365434 20.0902198,70.1972135 21.667938,71.4674001" id="Shape" fill-rule="nonzero"></path>
                <path d="M104.685176,0.000936336712 C105.125878,1.96849188 103.731985,3.84959234 104.357146,5.82744758 C105.796295,5.58993017 107.339378,5.68886975 108.035389,3.65077684 C108.37247,6.38612849 106.690497,7.41703521 105.308464,8.75818149 C103.771623,10.2494538 102.706696,12.1583322 102.348392,14.310034 C102.168615,15.3902544 102.081848,16.51261 101.612431,17.4764126 C101.168295,18.3865319 101.932346,19.1674367 101.517861,20.1237486 C101.058432,21.1821212 101.547199,22.6140922 100.211983,23.3918759 C100.048124,23.4876943 100.039385,23.9848891 100.081832,24.2782746 C100.408302,26.5385914 100.529089,28.8298074 100.879591,31.0732701 C101.099006,32.4796479 101.274725,33.7989463 101.038769,35.2037635 C100.943574,35.7699351 100.760677,36.5246225 101.401755,36.9235019 C102.022234,37.3095847 102.585597,36.8595189 103.135539,36.5717514 C103.841849,36.2015863 103.965757,35.6151274 103.91738,34.8691792 C103.805331,33.1416379 103.834982,31.3910004 102.530041,30.0033494 C102.459503,29.9284424 102.537532,29.7137092 102.561252,29.32669 C103.221369,30.2733265 104.25134,30.85604 104.935802,30.511156 C105.729191,30.1113402 105.238863,28.9022174 105.220136,28.0582659 C105.201097,27.2146265 104.960459,26.3762931 104.918948,25.516736 C105.651475,26.9577582 105.8325,28.542352 106.142428,30.1952984 C106.859974,29.7461689 106.222953,29.0333045 106.735129,28.5489064 C107.1003,29.1057146 107.09874,29.6778163 107.008539,30.2686448 C106.789749,31.6934371 107.496683,32.8928845 107.977336,34.1388365 C108.224841,34.7814756 108.528526,34.5233588 108.850002,34.1210461 C109.315673,33.5377084 109.363114,32.8925724 109.264174,32.2049891 C109.184274,31.6503657 108.927405,31.0919969 109.315049,30.5517306 C110.360937,31.0579766 110.360937,31.0579766 109.355623,34.612935 C111.413691,34.0308457 113.581623,33.9169247 115.61878,33.1463196 C114.200542,34.053942 112.944602,35.2393443 111.151517,35.3513926 C110.742338,35.3769858 110.146516,35.3626286 110.134656,35.8442178 C110.11905,36.4659454 110.798206,36.431613 111.209258,36.4178801 C112.51732,36.3744965 113.637179,36.8944755 114.759535,37.446602 C115.367841,37.7456055 115.98239,38.1413639 116.575092,37.4275632 C117.05512,36.8498434 117.811056,36.3432853 117.023597,35.4450262 C116.91467,35.3211177 117.07572,34.9600038 117.13783,34.5258557 C117.682466,35.1444622 118.331347,35.3039515 118.295142,36.3635726 C118.258937,37.4091485 119.194962,36.4103894 119.749897,36.5130743 C119.626301,37.2755645 119.067308,37.0527164 118.673734,37.1204447 C117.952131,37.2443533 116.963671,37.0224415 117.377844,38.3926142 C117.558245,38.9903091 116.968353,38.9990483 116.551995,38.970334 C115.650615,38.9069752 114.839747,38.5358737 114.056346,38.1288794 C112.138104,37.1313687 110.085654,37.1813066 107.979833,37.3170754 C109.223912,37.8326849 110.109062,38.9157143 111.436164,39.2537319 C112.156206,39.4372539 112.717384,39.8320758 112.384985,40.7041174 C112.074433,41.5181062 111.429921,41.3320873 110.810691,41.131087 C109.526349,40.714105 108.254179,40.2512426 106.953295,39.8941862 C105.681126,39.5455568 104.413638,39.504358 103.179859,40.1782083 C101.390207,41.1566802 100.597754,42.3826571 100.73165,44.6448465 C100.992264,49.0393869 100.743823,53.4632657 100.730402,57.8752843 C100.721975,60.7826098 100.582148,63.700235 101.023163,66.5885216 C101.374289,68.8891009 101.448802,71.6425843 103.135539,71.9172065 M87.4796767,72.9332477 C89.4633011,71.5669947 89.5698923,69.9443524 89.5873706,67.4827232 C89.6170213,63.2314424 90.0358759,59.0032579 90.2109708,54.7644616 C90.4016714,50.1526912 90.6938085,45.5524689 91.1872579,40.9703492 C91.4634772,38.4069714 90.8061689,36.1163797 89.5346236,34.0320941 C88.3863627,32.1503695 86.8542037,30.5136529 85.5555047,28.7130774 C83.734954,26.1890257 81.713091,23.7408173 78.0117519,24.298874 C77.503009,24.3753415 76.980221,24.4096739 76.4667964,24.3893866 C75.837266,24.3647297 75.1375103,24.0011189 75.3946908,23.3881305 C75.8191635,22.3765747 75.0192198,21.7217633 74.9905055,20.8803087 C75.3722187,21.2005358 75.7536199,21.5210751 76.2146097,21.9077822 C76.9824058,20.4343003 76.0750955,18.7339128 77.0167381,17.0541248 C77.544832,18.6228009 77.2564403,19.8696893 77.2676764,21.0959782 C77.2754792,21.9727015 77.5991396,22.3544148 78.5052014,22.5354399 C79.4789916,22.7298858 80.4999107,22.324452 81.4193933,22.8356918 C83.7561777,24.1343909 85.7633715,25.8862769 87.4796767,27.8769287 C88.4653271,29.0201958 89.4388052,30.0270699 90.9313259,30.8410586 C90.7840089,29.3213841 90.6938085,27.9808621 90.5143439,26.6528245 C90.3264524,25.2636129 90.2306339,23.8241513 89.7758864,22.5173374 C89.0187021,20.3412908 87.9706292,18.3596903 85.4880885,17.5182357 C84.1684779,17.0712909 82.9886937,16.2741563 82.4075407,14.7757054 C81.9115943,13.4966695 80.8547823,12.6676994 79.6334871,11.9482807 C78.3223036,11.176115 76.949634,10.5085069 75.4374502,9.75787699 C76.1559326,9.29439032 76.6265978,9.92922661 77.1125566,9.6970151 C76.2835865,8.31342156 76.4705417,7.82683858 77.9527627,7.39955692 C78.8251164,7.14768235 79.4874186,7.07152696 80.481184,7.58307892 C81.596361,8.15705332 81.8678986,9.31405339 83.0224018,10.0659318 C82.5199011,8.58776821 82.0795107,7.38145441 81.7087214,6.15454121 C81.5804433,5.73006857 81.474013,5.08087511 82.0832561,4.99161101 C82.6993656,4.90172269 82.5099135,5.54873136 82.5820114,5.92076914 C82.7240225,6.65298445 82.7677182,7.41641098 83.1828275,8.16516824 C84.3260946,6.25566557 84.3260946,6.25566557 85.5614348,6.38456793 C83.9509357,7.71479028 83.665353,8.57622006 84.2917623,10.2603777 C85.0676733,9.74445616 84.3385791,8.72665816 85.2905214,7.90174551 C84.4537485,11.0278617 86.2243612,11.9126999 88.5190104,12.3549629 C88.5695726,12.3646384 88.6195105,12.3849257 88.665391,12.4086462 C89.5059093,12.8496608 89.8308181,12.5456635 90.0365001,11.6555194 C90.38669,10.1386539 90.8005509,8.62366112 91.3486199,7.16859387 C92.1170403,5.12800406 94.1688661,4.20477606 96.4731908,4.71071 C98.4416827,5.14267334 99.4014278,6.43918757 99.3670954,8.66829317 C100.568103,8.29656749 101.313739,7.35149164 102.175793,6.56559303 C102.093396,8.07777682 100.703248,8.43795434 99.8152886,9.237898 C99.3670954,9.64208335 98.6851302,9.80843917 98.5596611,10.5316032 C98.2247646,12.4585842 97.5746349,14.3605962 98.1698329,16.3531207 C98.3371251,16.91305 98.0752629,17.8634318 98.7887515,17.9099365 C99.374274,17.9477021 99.8390091,17.1555612 100.150809,16.5544331 C100.314356,16.2382634 100.438889,15.8699709 100.461361,15.5172841 C100.638641,12.769448 101.883656,10.4694929 103.455454,8.30873987 C103.948279,7.63083209 104.295972,6.81403437 103.801274,6.16390458 C103.280671,5.47975455 102.829356,6.71727957 102.20482,6.53500603 C102.035343,5.59180285 102.792839,4.61208253 102.087154,3.68167595 C102.000698,3.56744287 101.850573,3.21974984 102.247579,3.32992546 C103.215751,3.5986541 102.839968,2.91731308 102.830293,2.52904546 C102.808445,1.64077403 102.581539,0.797758879 102.189526,0 C103.020369,0.000936336712 103.852773,0.000936336712 104.685176,0.000936336712 M89.3202025,16.8468822 C90.0105948,14.3346908 89.7446752,13.7625891 87.6728741,12.975442 C87.1435318,12.7741297 86.6013928,12.6071496 86.0698657,12.4114552 C85.8229849,12.3206306 85.6135576,12.2120155 85.4350294,12.5406697 C85.041768,13.2647701 85.7277907,15.0522369 86.5667484,15.0850087 C87.8148852,15.1336982 88.4803085,15.9361387 89.3202025,16.8468822 Z" id="Shape" fill-rule="nonzero"></path>
                <path d="M74.5037033,73.0201342 C76.3004678,73.098957 77.9215647,73.1953279 79.3052643,73.3121854 C80.707844,75.8302747 80.7635687,77.452373 80.7635687,77.452373 C80.7778223,77.5998654 80.6708177,77.7328357 80.5222908,77.7494693 C80.5222908,77.7494693 77.0020189,78.1514786 76.1000419,78.1514786 M27.114094,77.342177 C27.114094,75.1958368 28.4755138,74.6694107 29.3773595,72.9906919 C29.3773595,72.4255677 29.3773595,63.9251237 29.3773595,64.8723259 C29.3773595,65.2528232 65.5255645,64.8723259 74.5037239,64.8723259 C78.8819616,64.8723259 33.6472728,64.9699256 39.8361472,64.8723259 L35.959784,64.8723259 L29.9129539,64.6979866 L29.3773595,38.1208054 L29.9129539,38.1208054 L33.6739798,38.1208054 C33.9697804,38.1208054 34.2095742,38.3586848 34.2095742,38.6577005 L34.2095742,41.3102868 C36.0753,41.0897193 47.2042584,39.8033767 52.9920826,39.8033767 C58.9624145,39.8033767 71.8266879,41.1721229 73.2714333,41.3278994 L73.2068026,38.1208054 L73.742397,38.1208054 L77.5034229,38.1208054 C77.7992235,38.1208054 78.0390173,38.3586848 78.0390173,38.6577005 L78.0390173,64.1610914 C78.0390173,64.2588845 78.0129526,64.3505709 77.9673985,64.4295417 C77.9677766,64.429534 77.9679635,73.0201342 77.9679635,73.0201342 L74.5037239,73.0201342 M73.4042051,64.517639 L73.4042051,64.517639 M73.4042051,47.9162833 L73.7386365,64.5113836 C73.6288491,64.5134418 73.5173544,64.5155274 73.4042051,64.517639 L73.4042051,64.517639 M33.8751429,45.7718121 L34.0093711,45.7718121 M34.0093711,62.6845638 L33.8751429,62.6845638 L33.8751429,45.7718121 L33.8751429,45.7718121 M36.7599098,44.6979866 C36.7599098,44.6979866 45.4360183,43.1268352 54.0753461,43.1268352 C62.7146738,43.1268352 71.3907823,44.6979866 71.3907823,44.6979866" id="Combined-Shape"></path>
            </g>
        </g>
    </g>
</svg>