<!-- <svg version="1.1" id="tips" xmlns="http://www.w3.org/2000/svg" xmlns:xlink="http://www.w3.org/1999/xlink" x="0px" y="0px" width="50px" height="45px" viewBox="0 0 46 46" enable-background="new 0 0 46 46" xml:space="preserve" aria-hidden='true'>
    <path class="tips-line" fill-rule="evenodd" clip-rule="evenodd" fill="none" stroke="#fff" sstroke-miterlimit="10" d="M26.2820513,26.0989011 C25.0537121,25.9302707 24.1425721,25.0188297 23.9257294,23.7362637 L23.9257294,6.67032967 C24.1425721,5.59403211 25.0537121,4.68259113 26.2820513,4.78021978 L28.0262451,4.78021978 C28.2758621,3.84802246 28.2758621,4.10058594 28.4122314,3.14672852 C25.7740481,1.61328903 23.4121617,1 20.2643678,1 C8.9764984,1 0,9.97946343 0,20.8461538 C0,32.1334393 8.9764984,41.1129027 20.2643678,41.1648352 C23.0462227,41.1129027 25.8883967,40.4541771 28.2758621,39.2747253 L41,44 L34.8735632,34.5494505 C37.2312054,32.020355 38.8005371,29.2114258 39.4522095,26.0989011 L26.2820513,26.0989011 Z"></path>
    <path class="tips-line" fill-rule="evenodd" clip-rule="evenodd" fill="none" stroke="#fff" stroke-miterlimit="10" d="M42.8332921,7.13920723 C42.8332921,3.35079807 39.9990038,0.670654297 36.5,0.670654297 C33.0008725,0.670654297 30.1665842,3.35079807 30.1665842,7.13920723 L28.5832921,7.13920723 C27.7127165,7.13920723 27,7.91087308 27,8.85345468 L27,21.2820835 C27,22.2245312 27.7127165,22.996331 28.5832921,22.996331 L44.4165842,22.996331 C45.2871598,22.996331 46,22.2245312 46,21.2820835 L46,8.85345468 C46,7.91087308 45.2871598,7.13920723 44.4165842,7.13920723 L42.8332921,7.13920723 Z M36.4999946,2.44254494 C38.8848929,2.44254494 40.837755,4.55705215 40.837755,7.13920723 L32.1621213,7.13920723 C32.1621213,4.55705215 34.1148704,2.44254494 36.4999946,2.44254494 M38.0832921,19.2820835 L34.9165842,19.2820835 L34.9165842,16.4815392 C33.9655945,15.915182 33.3332921,14.8491439 33.3332921,13.6153734 C33.3332921,11.7826891 34.7572405,10.2820835 36.5,10.2820835 C38.242512,10.2820835 39.6665842,11.7826891 39.6665842,13.6153734 C39.6665842,14.8491439 39.0341581,15.915182 38.0832921,16.4815392 L38.0832921,19.2820835 Z"></path>
</svg> -->


<svg width="100px" height="68px" viewBox="0 0 100 68" version="1.1" xmlns="http://www.w3.org/2000/svg" xmlns:xlink="http://www.w3.org/1999/xlink">
    <!-- Generator: Sketch 43.2 (39069) - http://www.bohemiancoding.com/sketch -->
    <desc>Created with Sketch.</desc>
    <defs></defs>
    <g id="Page-1" stroke="none" stroke-width="1" fill="none" fill-rule="evenodd">
        <g id="elms-outline">
            <path d="M4.84161202,61.424846 C6.41040128,60.4096458 7.0457077,58.079877 6.99867047,56.8234094 C6.96861254,56.0217115 6.95392775,55.2163423 6.99683488,54.4155622 C7.05373845,53.3557332 6.60998235,53.3642228 5.83880126,53.7634656 C4.83220458,54.2843169 4.08029727,55.0885388 3.13427536,56.1596109 C3.44931007,54.581225 4.35150705,53.7926058 5.40468206,53.3910684 C6.8401206,52.8429126 7.06291644,51.8982674 7.01840317,50.5493315 C6.96471189,48.9186311 6.55468493,47.1408533 7.2724042,45.6783397 C8.14706719,43.8964318 7.86346712,42.1276026 7.88457651,40.3436297 C7.9070626,38.4648939 7.50070684,38.2737622 5.95352621,39.2335511 C5.5290439,39.4969596 5.12177034,39.7752823 4.84161202,40.2050419 C4.61789838,40.548299 4.26706949,40.6786265 3.88710046,40.7795845 C3.38735859,40.9117476 3.17580579,40.5558708 2.99867047,40.2364766 C2.78987107,39.8599493 2.96608859,39.6201742 3.376345,39.4652955 C4.53414916,39.0275051 3.78728976,38.6406526 3.30200323,38.3109331 C3.09343328,38.1689036 2.77954583,38.0470657 2.55147263,38.0954796 C2.04163497,38.2044683 1.83099996,37.9789191 1.7571171,37.5500772 C1.66740219,37.0280787 1.9709644,36.7926631 2.37387841,36.4718922 C2.76073093,36.1644293 3.85222408,36.8984395 3.62162694,35.5389489 C3.50208354,34.8336199 3.16548055,34.4410312 2.84952804,33.9064129 C2.2997661,32.9755347 1.17569107,32.7990877 0.393266929,31.9391095 C2.25089327,32.0981183 4.05391054,33.9816725 4.28037758,35.4297307 C4.39028408,36.1323063 4.74983206,36.4218721 5.47741768,36.2440484 C6.03130972,36.108673 6.23299618,35.8523775 5.83880126,35.3799401 C5.59076593,35.0823436 5.33263479,34.8040209 5.25875193,34.4141855 C5.21974545,34.2088279 5.13003054,34.0144838 5.45676719,33.8768139 C7.29718479,33.1015027 7.57390136,31.8480179 6.05723756,30.6170192 C5.06004832,29.8077494 5.43496945,29.031291 5.7502336,28.1781963 C5.80621938,28.0265299 6.02603237,27.827138 6.16484956,27.8310386 C7.29098964,27.8645383 7.19645628,27.0901449 7.22972652,26.3425972 C7.2701097,25.4307633 7.38345795,24.52283 7.44724502,23.611914 C7.48418645,23.0889977 7.46628936,22.6473066 6.71621766,23.0382892 C6.22932498,23.2922903 5.73325431,23.1527847 5.37072348,22.7271552 C5.01989459,22.3146043 4.88864925,21.8336773 5.23420079,21.3649112 C5.50013322,21.003757 5.47902383,20.6733492 5.2089613,20.211696 C6.03612817,20.6286064 6.5195791,20.3736876 7.02115656,19.7569263 C7.57091851,19.0811964 7.17626469,18.6622209 6.86283614,18.1388456 C6.65334838,17.7893935 6.41678554,17.4114895 6.64531764,16.9663567 C6.87339083,16.926203 6.86214779,17.1083862 6.91285621,17.2318302 C7.09067988,17.6636549 7.34146862,18.2079101 7.8141354,18.1152123 C8.29483292,18.020679 8.10668401,17.41126 8.13674195,17.0120172 C8.29529182,14.8834106 8.42607826,12.7525094 8.60734368,10.6257383 C8.69086344,9.64369278 8.39670868,9.02555476 7.3657903,8.79128642 C5.75918215,8.42646109 4.68443884,7.57198968 3.93230209,5.95367958 C3.40479679,4.81882041 2.86926073,3.37535112 1.27297782,2.93824908 C0.396479228,2.69847394 0.30492872,1.65310022 0.0376195939,0.909223665 C-0.165214112,0.344318026 0.49996113,0.169247757 0.890943749,0.031807271 C1.33653544,-0.124907007 1.34250114,0.333992781 1.37278853,0.612086053 C1.46686298,1.4782594 2.08477155,1.85685173 2.78964162,2.08538382 C3.4738612,2.30749132 3.71547194,2.82880148 4.09842382,3.36984433 C5.16353022,4.87480618 5.52238986,7.07178892 7.84625838,7.44831619 C8.26110379,7.51554501 8.53116632,7.58070878 8.80742399,7.15737373 C9.66097759,5.84973878 11.4412793,5.19534768 13.2130914,5.58059405 C12.651857,4.34294133 12.1319235,3.19729801 11.61199,2.05165469 C12.1718478,2.07895922 12.7642874,1.85731063 12.7326233,2.81296943 C12.7087605,3.52632915 13.2959228,4.12312833 13.6501934,4.75250939 C13.7821271,4.98677773 13.9450366,5.08337613 14.2008732,4.89889842 C14.3692894,4.77751943 14.5363289,4.32642093 14.7650905,4.81767316 C14.8779798,5.06043115 15.1411589,5.39909919 14.7081869,5.60170344 C14.1304321,5.87176597 14.2419447,6.11314726 14.6209959,6.50734218 C15.4750085,7.39577217 15.3428453,8.54715173 15.3593657,9.65287077 C15.3630369,9.905954 15.2554249,10.2668787 15.5507269,10.3742612 C15.9245008,10.5100956 16.060794,10.1337977 16.2028235,9.87956727 C16.4749511,9.39106844 16.8328929,9.00926382 17.3890795,8.87388838 C18.3977412,8.62860644 18.8635245,7.90308588 19.1973741,6.9917109 C19.5101143,6.13746895 19.7413998,5.24123766 20.2966685,4.48772421 C20.539656,4.15823416 20.4758689,3.84824736 20.154639,3.58644503 C19.167775,2.7819937 18.5611095,1.55351897 17.3151966,1.03335606 C17.2823853,1.01981851 17.2972995,0.893621072 17.2803202,0.718321353 C18.0847715,0.8348819 18.6391225,1.31695613 19.1836071,1.8015543 C19.3515644,1.95069673 19.461012,2.16431458 19.6044182,2.3423677 C20.069972,2.92081088 20.8852075,3.07110057 21.3544325,2.86597236 C21.9055712,2.62482052 21.3051008,1.95000838 21.2355775,1.46128011 C21.214927,1.31649723 21.1339312,1.17515609 21.0589011,1.04436965 C20.9014984,0.767194181 20.4763278,0.467991519 20.9182483,0.18439145 C21.3555798,-0.0959963199 21.6414744,0.274106359 21.7617061,0.663023929 C21.9567385,1.29401114 22.2995366,1.32154512 22.8148811,0.797252117 C22.5223325,2.50206483 21.8486676,3.81589492 20.9336214,5.02830816 C20.4038216,5.72996594 20.4150647,6.62023152 20.2631688,7.4331725 C20.0848863,8.38584846 19.6491609,9.08016384 18.7664672,9.44384192 C17.8275582,9.83092389 17.3587921,10.6594675 16.7117434,11.3542417 C15.474779,12.6818388 15.3928654,14.1152123 15.5780315,15.8094703 C15.8070225,17.9100841 15.7124891,18.0140249 17.5538245,17.0728214 C19.1567615,16.2536853 21.0026858,16.5065391 22.5994277,15.7101185 C22.9360307,15.5423906 23.4729434,15.6704237 23.9134872,16.0799917 C24.4543006,16.5829459 25.1871636,16.9528191 25.9005233,17.1746972 C26.4902095,17.3580277 27.1074297,17.5252966 27.1400116,18.1409107 C27.1682339,18.6808063 26.3585053,18.3735729 26.0801825,18.7370215 C26.1609489,18.315981 26.0473712,18.018155 25.6283957,17.8130268 C24.8065062,17.4098833 24.0105445,16.9548842 23.1950796,16.5382032 C22.8410384,16.3571672 22.476672,16.367263 22.08959,16.506998 C20.6321243,17.0331266 19.2331683,17.5870187 19.6691231,19.5944758 C19.6727943,19.6100784 19.573213,19.6477081 19.5190628,19.6763894 C19.1941618,17.2933228 19.2120589,17.3318704 16.9297208,18.3783913 C16.1186154,18.7501002 15.7999095,19.1888084 15.8262962,20.10156 C15.875628,21.7751676 15.9396445,23.4542819 15.6711881,25.1292661 C15.4403615,26.5702114 15.8795286,26.8666607 17.3333231,26.5635574 C19.0326291,26.2092868 19.5878978,24.6019903 20.706466,23.616503 C20.9806587,23.3748922 20.647268,23.1440656 20.5419505,22.9164513 C20.0906225,21.9399126 19.2118294,21.4569206 18.0776586,20.992514 C19.1459773,20.6143806 19.6583389,21.24445 20.1741423,21.6352031 C20.7863146,22.0989214 21.0754215,23.4974185 22.1240075,22.1131473 C22.1545243,22.0725346 22.2876053,22.0583087 22.3351014,22.0892845 C23.2372984,22.6803474 23.5401722,21.8664886 23.9371205,21.3779898 C24.4676087,20.7254343 24.940046,20.0237765 25.4374934,19.3427692 C25.4069766,19.9097399 25.3764597,20.4767106 25.3411244,21.1450982 C26.029933,20.9362988 26.5721231,21.0322088 26.6613791,21.9321113 C26.7244779,22.567458 26.5395412,22.874462 25.8823967,22.8866229 C24.0229348,22.9201225 22.7152999,23.8255318 21.5735572,25.2820797 C19.8804464,27.4423505 18.0118065,29.4660986 16.1860737,31.520134 C15.8070225,31.9466814 15.5784904,32.3541844 15.5883567,32.9367577 C15.6484726,36.4048928 15.9226652,39.8597199 16.1920394,43.3147764 C16.2126899,43.5813971 16.2650044,43.8471001 16.2615627,44.1130325 C16.2055769,48.3911258 16.5497518,52.6547637 16.7078427,56.9250557 C16.7567156,58.2363619 17.1711281,59.9976183 18.5196051,61.083248" id="Shape" fill="#6C897C" fill-rule="nonzero"></path>
            <path d="M87.1794872,1.55431223e-14 C87.3038528,1.68362932 86.0937153,3.29327937 86.3247863,5.12820513 C87.8858894,4.78247942 89.225549,4.86714162 89.7435897,3.41880342 C90.122449,5.4637831 88.6622091,6.34592581 87.1794872,7.69230769 C86.1281281,8.76961491 85.2035895,10.4030345 84.6153846,11.965812 C84.7364428,13.1685772 84.6611141,14.1289724 84.6153846,14.5299145 C83.8679944,15.7324798 84.531321,16.4006969 83.7606838,17.0940171 C83.7726141,18.1246542 84.196948,19.349986 82.9059829,19.6581197 C82.8954947,20.0975238 82.8879077,20.5229714 82.9059829,20.5128205 C83.2081904,22.7081641 83.3130545,24.6687483 83.7606838,26.4957265 C83.8078398,27.7919021 83.9603941,28.9208204 83.7606838,29.9145299 C83.6728983,30.6073876 83.5141118,31.2531705 83.7606838,31.6239316 C84.6093594,31.9248595 85.0984544,31.53974 85.4700855,31.6239316 C86.1890956,30.9767498 86.2966694,30.4749193 86.3247863,29.9145299 C86.1573925,28.3583643 86.1831343,26.8603508 85.4700855,25.6410256 C84.9889838,25.6088459 85.0567255,25.4250996 85.4700855,24.7863248 C85.6504137,25.9039618 86.544604,26.4025874 87.1794872,26.4957265 C87.8276315,25.7653508 87.4019428,24.7307093 87.1794872,23.9316239 C87.3691558,23.2866446 87.1602404,22.5692861 87.1794872,22.2222222 C87.7601608,23.0668434 87.9173215,24.4227739 88.034188,25.6410256 C88.8093441,25.4528752 88.256301,24.8428801 88.8888889,24.7863248 C89.0179885,24.904841 89.0166337,25.3943862 88.8888889,25.6410256 C88.7483766,27.1191448 89.3621163,28.145507 89.7435897,29.0598291 C89.9942817,29.7615668 90.2579324,29.5406973 90.5982906,29.0598291 C90.9413105,28.6972802 90.9824974,28.1452399 90.5982906,27.3504274 C90.8272335,27.0822887 90.6042279,26.6044947 90.5982906,26.4957265 C91.8487782,26.5753838 91.8487782,26.5753838 90.5982906,29.9145299 C92.762749,29.1192558 94.6448841,29.0217741 96.5811966,28.2051282 C95.1822111,29.1390192 94.0918409,30.1533631 92.3076923,29.9145299 C92.1798995,30.2711424 91.662624,30.2588571 91.4529915,30.7692308 C91.6387789,31.2029607 92.2284026,31.1735827 92.3076923,30.7692308 C93.7208874,31.1247083 94.6931162,31.5696522 95.7264957,31.6239316 C96.1956268,32.2979608 96.7291603,32.6366096 97.4358974,31.6239316 C97.6604731,31.5314608 98.3167545,31.098001 97.4358974,29.9145299 C97.538538,30.2233363 97.6783569,29.9143327 97.4358974,29.9145299 C98.2051162,30.0721729 98.7684561,30.2086473 99.1452991,30.7692308 C98.7055918,32.0100559 99.5182211,31.1554217 100,31.6239316 C99.8926972,31.8957486 99.4073957,31.7050583 99.1452991,31.6239316 C98.4392315,31.8690413 97.5810798,31.6791522 98.2905983,32.4786325 C98.0972715,33.3630486 97.5851443,33.3705267 97.4358974,33.3333333 C96.4411227,33.2917401 95.7371511,32.9741901 94.8717949,32.4786325 C93.3916628,31.7723608 91.6097855,31.8150925 89.7435897,31.6239316 C90.8616463,32.3724742 91.630108,33.2992181 93.1623932,33.3333333 C93.4073789,33.7454974 93.8945771,34.083345 94.017094,35.042735 C93.3363856,35.5260743 92.7768393,35.3668987 92.3076923,35.042735 C91.1242131,34.8380938 90.0197526,34.4420243 88.8888889,34.1880342 C87.7859027,33.8381718 86.6855067,33.8029181 85.4700855,34.1880342 C84.0606518,35.2168036 83.3726672,36.265867 83.7606838,38.4615385 C83.7151691,41.9620038 83.4994796,45.747499 83.7606838,49.5726496 C83.4805119,52.0106321 83.3591188,54.5072322 83.7606838,57.2649573 C84.0468325,58.9473238 84.1115226,61.3034684 85.4700855,61.5384615 L87.1794872,1.55431223e-14 Z M72.6495726,62.3931624 C74.0205271,61.224356 74.1124567,59.8362129 74.3589744,58.1196581 C74.1531031,54.0934317 74.5143443,50.4762913 74.3589744,47.008547 C74.8298248,42.9047808 75.0817784,38.9693683 75.2136752,35.042735 C75.7455794,32.8565158 75.1786837,30.8969532 74.3589744,29.0598291 C73.0917214,27.5040984 71.7703105,26.103915 70.9401709,24.7863248 C69.080113,22.4042695 67.3363568,20.3098685 64.1025641,20.5128205 C63.7053707,20.8526932 63.2544921,20.882064 62.3931624,20.5128205 C62.2687503,20.843615 61.6652459,20.5325522 61.5384615,19.6581197 C62.2531378,19.142782 61.5632262,18.5826018 61.5384615,17.9487179 C61.8676702,18.1367006 62.1966097,18.4109165 62.3931624,18.8034188 C63.2563764,17.481199 62.4738664,16.0265462 63.2478632,14.5299145 C63.741441,15.9314918 63.4927175,16.9981838 63.2478632,17.9487179 C63.5091376,18.7972753 63.7882785,19.1238245 64.957265,19.6581197 C65.4095573,19.4450337 66.2900492,19.0981919 66.6666667,19.6581197 C69.0984173,20.646564 70.829522,22.1452729 72.6495726,23.9316239 C73.1598242,24.8262877 73.9994006,25.6876515 75.2136752,26.4957265 C75.1595718,25.0839492 75.0817784,23.9371552 75.2136752,23.0769231 C74.7649521,21.6125945 74.6823134,20.3811593 74.3589744,19.6581197 C73.6370826,17.401631 72.7331719,15.7064051 70.9401709,15.3846154 C69.4540058,14.6042013 68.4365006,13.922266 67.5213675,12.8205128 C67.5075561,11.5461729 66.5961083,10.837003 65.8119658,10.2564103 C64.4119715,9.56097774 63.2281123,8.9898503 61.5384615,8.54700855 C62.5435844,7.95119404 62.9495097,8.49428577 63.2478632,8.54700855 C62.6536795,7.11199182 62.8149191,6.6957283 64.1025641,5.98290598 C64.8456225,6.11472161 65.4168252,6.04957196 66.6666667,6.83760684 C67.235683,6.97822144 67.4698707,7.96801547 68.3760684,8.54700855 C68.0321903,7.34669076 67.6523756,6.31470966 67.5213675,5.12820513 C67.2219547,4.90197694 67.1301639,4.3466029 67.5213675,4.27350427 C68.1869696,4.19334103 68.0235765,4.74684602 68.3760684,5.12820513 C68.2082349,5.69151591 68.2459203,6.34461442 68.3760684,6.83760684 C69.5899423,5.35161631 69.5899423,5.35161631 70.9401709,5.12820513 C69.2663864,6.59987287 69.0200856,7.33681151 69.2307692,8.54700855 C70.229517,8.33621778 69.6007096,7.46550876 70.0854701,6.83760684 C69.7000374,9.43414954 71.2271028,10.1911137 73.5042735,10.2564103 C74.0572746,10.9926679 74.3374922,10.7326034 74.3589744,10.2564103 C74.8169041,8.6734473 75.1738384,7.37739653 76.0683761,5.98290598 C76.309245,4.38692092 78.0788426,3.59711495 80.3418803,4.27350427 C81.7639341,4.39947024 82.5916665,4.65391543 82.9059829,6.83760684 C83.5978661,6.2428726 85.095641,5.43437616 85.4700855,5.12820513 C85.7680558,6.05570087 83.7144216,10.6373309 82.9059829,11.1111111 C82.5620566,11.667443 81.9738955,11.8097576 82.0512821,12.8205128 C81.5768531,14.0769119 81.0161486,12.2852476 81.1965812,13.6752137 C81.6737584,14.4688288 81.4479153,15.2818644 82.0512821,15.3846154 C82.5682477,15.3539562 82.9690586,14.6762931 82.9059829,14.5299145 C83.3790217,13.8915602 83.486425,13.5764923 83.7606838,13.6752137 C83.658701,10.9240472 84.7324651,8.95647446 86.3247863,6.83760684 C86.5130992,6.52804806 86.8129671,5.82929139 86.3247863,5.12820513 C85.9373204,4.68783753 85.5480843,5.7465193 84.6153846,5.98290598 C84.8632872,4.78369295 85.5165901,3.94555876 84.6153846,3.41880342 C84.8334081,3.05188716 84.7039319,2.75444164 85.4700855,2.56410256 C85.5300492,1.40365449 85.3343544,0.682469256 84.6153846,1.33226763e-15 C85.7128233,0.000801020253 86.4615808,1.33226763e-15 87.1794872,1.33226763e-15 L85.4700855,61.5384615 L72.6495726,62.3931624 Z M73.5042735,14.5299145 C73.7793288,12.1590358 73.5698638,11.6191152 71.7948718,11.1111111 C71.520942,10.6862573 71.0938989,10.52867 70.9401709,10.2564103 C70.4807466,10.2582679 70.3157806,10.1557625 70.0854701,10.2564103 C69.8653817,11.1492989 70.4057621,12.8362193 70.9401709,12.8205128 C72.0497674,12.9130983 72.5739216,13.670401 73.5042735,14.5299145 Z" id="Shape" fill="#6C897C" fill-rule="nonzero"></path>
            <path d="M65.6573246,62.614007 C65.9288245,62.6289045 66.193631,62.644228 66.4514579,62.6599875 C68.1077694,64.8122006 68.173575,66.1986094 68.173575,66.1986094 C68.1904071,66.3246713 68.064045,66.4383211 67.8886491,66.4525379 C67.8886491,66.4525379 64.4866877,66.7337208 63.0492448,66.7873555 L62.8236957,67.1482706 L28.5523504,66.6353666 L22.3197384,66.1044248 C23.0398503,62.5387587 22.482668,62.1725134 25.1708935,62.4003636 C26.7877706,62.5374078 31.2152206,62.889373 33.1932882,62.889373 C33.1932882,62.6986603 23.4729734,62.889373 23.4729734,62.4103711 C23.4729734,59.3074899 24.7119264,54.8075026 24.7119264,55.2974244 C24.7119264,55.6226358 55.1500552,55.4464324 62.8236957,55.4464324 C66.5657792,55.4464324 27.9036519,55.529851 33.1932882,55.4464324 L29.8801572,55.4464324 L24.7119264,55.2974244 L24.2541534,32.5818849 L24.7119264,32.5818849 L27.9264785,32.5818849 C28.1792995,32.5818849 28.3842515,32.7852007 28.3842515,33.0407697 L28.3842515,35.3079375 C29.9788889,35.1194182 39.4908191,34.0199801 44.4376775,34.0199801 C49.5405252,34.0199801 60.5356306,35.1898486 61.7704558,35.3229909 L61.7152159,32.5818849 L62.1729889,32.5818849 L65.3875409,32.5818849 C65.640362,32.5818849 65.845314,32.7852007 65.845314,33.0407697 L65.845314,54.8385397 C65.845314,54.9221235 65.884249,62.3328672 65.845314,62.4003636 C65.8455666,62.4003584 63.5483482,62.4103711 59.111662,62.4103711 C58.4239711,62.4103711 65.7845842,62.4103711 65.7845842,62.4103711 L65.6573246,62.614007 Z M61.883936,55.1432812 L61.883936,55.1432812 M61.883936,40.9540883 L62.1697748,55.1379347 C62.0759394,55.1396938 61.9806448,55.1414764 61.883936,55.1432812 L61.883936,55.1432812 M28.0984127,39.1212069 L28.2131376,39.1212069 M28.2131376,53.5765502 L28.0984127,53.5765502 L28.0984127,39.1212069 L28.0984127,39.1212069" id="Combined-Shape" stroke="#6C897C"></path>
        </g>
    </g>
</svg>